<svg width="22" height="20" viewBox="0 0 22 20" fill="none" xmlns="http://www.w3.org/2000/svg">
  <g clip-path="url(#clip0_7_348)">
    <path
      d="M18.0473 17.0413H14.9089V12.4004C14.9089 11.2937 14.888 9.86912 13.2766 9.86912C11.6421 9.86912 11.392 11.0749 11.392 12.3199V17.041H8.2536V7.49741H11.2664V8.80165H11.3086C11.6101 8.31485 12.0458 7.91439 12.5693 7.64291C13.0928 7.37143 13.6844 7.23911 14.2812 7.26003C17.4621 7.26003 18.0486 9.23568 18.0486 11.8059L18.0473 17.0413ZM4.71247 6.19287C4.35226 6.19293 4.00012 6.09213 3.70059 5.90321C3.40105 5.71429 3.16757 5.44574 3.02966 5.13153C2.89176 4.81731 2.85562 4.47153 2.92583 4.13792C2.99604 3.80431 3.16944 3.49785 3.4241 3.2573C3.67876 3.01675 4.00324 2.8529 4.35652 2.78649C4.70979 2.72007 5.07599 2.75406 5.4088 2.88417C5.74161 3.01428 6.02609 3.23465 6.22627 3.51743C6.42644 3.80021 6.53332 4.13268 6.53338 4.47281C6.53342 4.69865 6.48636 4.92229 6.39487 5.13096C6.30339 5.33962 6.16927 5.52923 6.00018 5.68895C5.8311 5.84867 5.63035 5.97538 5.4094 6.06184C5.18846 6.1483 4.95164 6.19282 4.71247 6.19287ZM6.28166 17.0413H3.14001V7.49741H6.28166V17.0413ZM19.6119 0.00136213H1.56298C1.15332 -0.00300324 0.75858 0.146386 0.465506 0.416701C0.172433 0.687017 0.00499967 1.05614 0 1.44297V18.5567C0.00482855 18.9438 0.172154 19.3131 0.465218 19.5837C0.758282 19.8543 1.15311 20.004 1.56298 19.9999H19.6119C20.0226 20.0047 20.4185 19.8555 20.7127 19.5849C21.007 19.3143 21.1754 18.9445 21.1811 18.5567V1.44173C21.1752 1.05414 21.0067 0.684596 20.7125 0.414287C20.4182 0.143978 20.0224 -0.00498453 19.6119 0.000127351"
      fill="#F5F5F5" />
  </g>
  <defs>
    <clipPath id="clip0_7_348">
      <rect width="21.1811" height="20" fill="white" />
    </clipPath>
  </defs>
</svg>