<svg width="24" height="22" viewBox="0 0 24 22" fill="none" xmlns="http://www.w3.org/2000/svg">
  <g clip-path="url(#clip0_20_1480)">
    <path
      d="M20.4491 18.6714H16.8931V13.5865C16.8931 12.374 16.8694 10.8131 15.0436 10.8131C13.1915 10.8131 12.9081 12.1342 12.9081 13.4983V18.6711H9.35204V8.21456H12.7658V9.64355H12.8136C13.1553 9.11018 13.649 8.67142 14.2421 8.37397C14.8352 8.07653 15.5056 7.93154 16.1819 7.95446C19.7861 7.95446 20.4506 10.1191 20.4506 12.9351L20.4491 18.6714ZM5.33963 6.78523C4.93148 6.78529 4.53248 6.67485 4.19308 6.46786C3.85368 6.26088 3.58912 5.96664 3.43287 5.62237C3.27661 5.27809 3.23567 4.89924 3.31522 4.53372C3.39477 4.1682 3.59125 3.83243 3.8798 3.56887C4.16835 3.30531 4.53602 3.12579 4.9363 3.05302C5.33659 2.98025 5.75153 3.0175 6.12863 3.16005C6.50574 3.3026 6.82808 3.54405 7.05489 3.85388C7.28171 4.1637 7.40281 4.52798 7.40288 4.90065C7.40293 5.14809 7.3496 5.39312 7.24594 5.62174C7.14228 5.85037 6.99031 6.05811 6.79872 6.23311C6.60713 6.40811 6.37967 6.54694 6.12931 6.64167C5.87896 6.7364 5.61063 6.78518 5.33963 6.78523ZM7.11765 18.6714H3.5579V8.21456H7.11765V18.6714ZM22.222 0.00149242H1.77099C1.30681 -0.0032905 0.859536 0.160388 0.527458 0.45656C0.195381 0.752732 0.00566506 1.15717 0 1.58099V20.3317C0.00547116 20.7558 0.195065 21.1605 0.527132 21.4569C0.859198 21.7534 1.30658 21.9174 1.77099 21.9129H22.222C22.6873 21.9182 23.1359 21.7547 23.4693 21.4582C23.8027 21.1618 23.9936 20.7566 24 20.3317V1.57964C23.9934 1.15497 23.8024 0.750079 23.469 0.453914C23.1356 0.15775 22.6871 -0.00546131 22.222 0.000139533"
      fill="#D741A7" />
  </g>
  <defs>
    <clipPath id="clip0_20_1480">
      <rect width="24" height="21.913" fill="white" />
    </clipPath>
  </defs>
</svg>