<svg width="24" height="24" viewBox="0 0 24 24" fill="none" xmlns="http://www.w3.org/2000/svg">
  <path fill-rule="evenodd" clip-rule="evenodd"
    d="M1.5 4.5C1.5 3.70435 1.81607 2.94129 2.37868 2.37868C2.94129 1.81607 3.70435 1.5 4.5 1.5H5.872C6.732 1.5 7.482 2.086 7.691 2.92L8.796 7.343C8.88554 7.701 8.86746 8.07746 8.74401 8.42522C8.62055 8.77299 8.39723 9.07659 8.102 9.298L6.809 10.268C6.674 10.369 6.645 10.517 6.683 10.62C7.24738 12.1549 8.1386 13.5487 9.29495 14.7051C10.4513 15.8614 11.8451 16.7526 13.38 17.317C13.483 17.355 13.63 17.326 13.732 17.191L14.702 15.898C14.9234 15.6028 15.227 15.3794 15.5748 15.256C15.9225 15.1325 16.299 15.1145 16.657 15.204L21.08 16.309C21.914 16.518 22.5 17.268 22.5 18.129V19.5C22.5 20.2956 22.1839 21.0587 21.6213 21.6213C21.0587 22.1839 20.2956 22.5 19.5 22.5H17.25C8.552 22.5 1.5 15.448 1.5 6.75V4.5Z"
    fill="#D741A7" />
</svg>