<svg width="24" height="24" viewBox="0 0 24 24" fill="none" xmlns="http://www.w3.org/2000/svg">
  <path
    d="M19.5 21C20.2956 21 21.0587 20.6839 21.6213 20.1213C22.1839 19.5587 22.5 18.7956 22.5 18V13.5C22.5 12.7044 22.1839 11.9413 21.6213 11.3787C21.0587 10.8161 20.2956 10.5 19.5 10.5H4.5C3.70435 10.5 2.94129 10.8161 2.37868 11.3787C1.81607 11.9413 1.5 12.7044 1.5 13.5V18C1.5 18.7956 1.81607 19.5587 2.37868 20.1213C2.94129 20.6839 3.70435 21 4.5 21H19.5ZM1.5 10.146V6C1.5 5.20435 1.81607 4.44129 2.37868 3.87868C2.94129 3.31607 3.70435 3 4.5 3H9.879C10.4754 3.00026 11.0473 3.23729 11.469 3.659L13.591 5.78C13.731 5.921 13.922 6 14.121 6H19.5C20.2956 6 21.0587 6.31607 21.6213 6.87868C22.1839 7.44129 22.5 8.20435 22.5 9V10.146C21.6758 9.40664 20.6072 8.99842 19.5 9H4.5C3.39279 8.99842 2.32417 9.40664 1.5 10.146Z"
    fill="#D741A7" />
</svg>