<?xml version="1.0" encoding="utf-8"?>
<!-- Svg Vector Icons : http://www.onlinewebfonts.com/icon -->
<!DOCTYPE svg PUBLIC "-//W3C//DTD SVG 1.1//EN" "http://www.w3.org/Graphics/SVG/1.1/DTD/svg11.dtd">
<svg version="1.1" xmlns="http://www.w3.org/2000/svg" xmlns:xlink="http://www.w3.org/1999/xlink" x="0px" y="0px" viewBox="0 0 1000 1000" enable-background="new 0 0 1000 1000" xml:space="preserve">
<metadata> Svg Vector Icons : http://www.onlinewebfonts.com/icon </metadata>
<g><g><path fill="white" d="M806.3,10c50.6,0,93.9,18,129.8,53.9C972,99.9,990,143.1,990,193.8v612.5c0,50.6-18,93.9-53.9,129.8C900.1,972,856.9,990,806.3,990H193.8c-50.6,0-93.9-18-129.8-53.9C28,900.1,10,856.9,10,806.3V193.8c0-50.6,18-93.9,53.9-129.8S143.1,10,193.8,10H806.3z M826.7,683.7V405.6c-13.2,14.9-26.8,26.6-40.8,35.1c-14.5,9.4-42.6,27.4-84.5,54.2c-41.9,26.8-74.1,47.9-96.7,63.2c-41.7,29.3-76.6,44-104.6,44l0,0l0,0c-28.1,0-63-14.7-104.6-44c-19.6-13.6-49.7-33.3-90.3-59s-70.9-45.4-90.9-59c-5.1-3.4-12.1-9.1-21.1-17.2c-8.9-8.1-15.5-13.8-19.8-17.2v278.2c0,17,6,31.5,17.9,43.4c11.9,11.9,26.4,17.9,43.4,17.9h530.8c17,0,31.5-6,43.4-17.9S826.7,700.8,826.7,683.7L826.7,683.7z M826.7,318.2c0-17.4-5.8-32.3-17.5-44.7S782.9,255,765.4,255H234.6c-17,0-31.5,6-43.4,17.9c-11.9,11.9-17.9,26.4-17.9,43.4c0,15.7,6.5,32,19.5,48.8c13,16.8,27.3,30.5,43.1,41.2c20,13.6,49.2,32.5,87.7,56.8s66,41.9,82.6,53c1.3,0.9,4.9,3.3,10.8,7.3s10.4,7,13.4,8.9c3,1.9,7.4,4.7,13.4,8.3c6,3.6,11,6.4,15,8.3c4,1.9,8.6,3.9,13.7,6.1c5.1,2.1,9.9,3.7,14.4,4.8s8.8,1.6,13.1,1.6c4.3,0,8.6-0.5,13.1-1.6c4.5-1.1,9.3-2.7,14.4-4.8s9.7-4.1,13.7-6.1c4-1.9,9-4.7,15-8.3s10.4-6.4,13.4-8.3c3-1.9,7.4-4.9,13.4-8.9c6-4,9.6-6.5,10.8-7.3l170.3-111c14.9-9.8,29-23.1,42.4-39.9C820,348.3,826.7,332.6,826.7,318.2L826.7,318.2z"/></g></g>
</svg>