<?xml version="1.0" encoding="utf-8"?>
<!-- Svg Vector Icons : http://www.onlinewebfonts.com/icon -->
<!DOCTYPE svg PUBLIC "-//W3C//DTD SVG 1.1//EN" "http://www.w3.org/Graphics/SVG/1.1/DTD/svg11.dtd">
<svg version="1.1" xmlns="http://www.w3.org/2000/svg" xmlns:xlink="http://www.w3.org/1999/xlink" x="0px" y="0px" viewBox="0 0 1000 1000" enable-background="new 0 0 1000 1000" xml:space="preserve" fill="white">
<metadata> Svg Vector Icons : http://www.onlinewebfonts.com/icon </metadata>
<g><g transform="matrix(1 0 0 -1 0 1920)"><path d="M112.1,930c-28.3,0-52.4,9.9-72.3,29.8c-19.9,19.9-29.8,44-29.8,72.3v775.8c0,28.3,9.9,52.4,29.8,72.3c19.9,19.9,44,29.8,72.3,29.8h775.8c28.3,0,52.4-9.9,72.3-29.8c19.9-19.9,29.8-44,29.8-72.3v-775.8c0-28.3-9.9-52.4-29.8-72.3c-19.9-19.9-44-29.8-72.3-29.8H112.1z M152.5,1068l194.8,51c50.9-27,105.4-40.4,163.3-40.4c27.2,0,53.9,3.1,80,9.2c26.1,6.1,50.7,15,73.7,26.5c23,11.6,44.6,25.3,64.9,41.2c20.3,15.9,38.4,34,54.3,54.3c15.9,20.3,29.7,41.9,41.2,64.9c11.6,23,20.4,47.6,26.5,73.9c6.1,26.3,9.2,53,9.2,80.2c0,46.5-8.8,91.2-26.3,133.9c-17.6,42.7-42.9,80.6-75.9,113.7c-33.1,33.1-70.9,58.4-113.5,75.9c-42.6,17.6-87.3,26.5-134.1,26.7c-31.8,0-62.9-4.2-93.1-12.7c-30.2-8.4-58.1-20.2-83.7-35.3c-25.6-15.1-49.1-33.4-70.6-54.9c-21.5-21.5-39.8-45.1-54.9-70.6c-15.1-25.6-26.9-53.5-35.3-83.7c-8.4-30.2-12.7-61.3-12.7-93.1c0-60.7,14.8-117.5,44.5-170.3L152.5,1068z M510.2,1160.3c-49,0-94.5,12.5-136.4,37.6l-14.7,8.6l-90.6-23.7l24.1,88.2l-9.8,15.1c-27.2,43.6-40.8,91.2-40.8,142.9c0,36.5,7.1,71.3,21.2,104.3c14.2,33.1,33.3,61.6,57.4,85.5c24.1,24,52.7,43.1,85.8,57.4c33.1,14.3,67.9,21.4,104.3,21.4c35.9,0,70.2-6.8,102.9-20.4s61.7-33.1,87-58.4c25.3-25.3,44.7-54.4,58.2-87.2c13.5-32.8,20.2-67,20.2-102.7c0-36.5-7.1-71.3-21.2-104.3c-14.2-33.1-33.2-61.7-57.2-85.8c-24-24.1-52.5-43.2-85.8-57.4C581.5,1167.4,546.7,1160.3,510.2,1160.3z M598.4,1254.2c6.8,0,14.2,0.7,22.1,2c10.9,1.6,23.7,7.1,38.4,16.3c14.7,9.3,24.2,19.9,28.6,31.8c4.4,12.5,6.5,24.4,6.5,35.5c0,6.5-1,11.4-2.9,14.7c-2.2,4.1-7.8,8.2-16.7,12.3l-4.5,2.5c-32.1,16.1-51.7,25.3-58.8,27.8c-5.2,2.2-9.7,3.3-13.5,3.3c-7.9,0-14.6-4.1-20-12.3c-3-4.1-7.5-9.5-13.5-16.3c-6-6.8-11.3-11.6-15.9-14.3l-6.1,2.4c-22.3,9.8-41.9,22.3-58.8,37.6c-7.4,6.3-14.2,13.3-20.4,21c-6.3,7.8-11.2,14.7-14.9,20.8s-6.2,11.4-7.6,15.7c1.6,1.9,4.6,5.4,9,10.6l4.1,4.9c3.3,3.5,6.7,9.1,10.2,16.7c1.9,3.8,2.9,7.8,2.9,11.8c0,4.6-1.2,9.3-3.7,13.9c-0.8,1.9-6.1,14.8-15.9,38.8l-9.4,23.3c-3.8,8.7-8.2,14.6-13.1,17.6c-4.9,3-10.5,4.5-16.7,4.5H391c-12.3,0-23.3-5.3-33.1-15.9c-21-22.3-31.4-48-31.4-77.2c0-29.9,12.8-62.1,38.4-96.4c7.4-10.6,15.3-21.1,23.9-31.4c8.6-10.3,19.1-21.8,31.6-34.5c12.5-12.7,26.8-24.6,42.9-35.9c16.1-11.3,32.5-20.6,49.4-28c15.5-6.5,32-12.5,49.4-18C573.8,1256.1,585.9,1254.2,598.4,1254.2z"/></g></g>
</svg>